<?xml version="1.0" encoding="utf-8"?>
<!-- Generator: Adobe Illustrator 19.0.0, SVG Export Plug-In . SVG Version: 6.00 Build 0)  -->
<svg version="1.1" id="Capa_1" xmlns="http://www.w3.org/2000/svg" xmlns:xlink="http://www.w3.org/1999/xlink" x="0px" y="0px"
	 viewBox="0 0 387.5 393.9" style="enable-background:new 0 0 387.5 393.9;" xml:space="preserve">
<style type="text/css">
	.st0{fill:#58595B;}
	.st1{fill:#FFFFFF;}
</style>
<rect class="st0" width="387.5" height="393.9"/>
<g>
	<path class="st0" d="M316.1,265.1V100.9c-6.3-2.1-23.6-7-44.8-7c-27.9,0-54.3,9.5-73.9,25.6v156c12.8-5.1,46.7-16.9,80.7-16.9
		C292.6,258.7,305.3,260.8,316.1,265.1z M216.1,131.3c9.8-4.7,43-18.3,80.7-9.6c1.7,0.4,2.7,2.1,2.3,3.7l-0.1,0.5
		c-0.4,1.6-2,2.5-3.6,2.2c-35.4-8.1-67.3,4.9-76.3,9.1c-1.5,0.7-3.2,0.1-4-1.3l-0.3-0.5C213.8,134,214.5,132.1,216.1,131.3z
		 M216.1,149.9c9.8-4.7,43-18.3,80.7-9.6c1.7,0.4,2.7,2,2.3,3.7l-0.1,0.5c-0.4,1.6-2,2.5-3.6,2.2c-35.4-8.1-67.3,4.9-76.3,9.1
		c-1.5,0.7-3.2,0.1-4-1.3l-0.3-0.5C213.8,152.5,214.5,150.6,216.1,149.9z M216.1,167.2c9.8-4.7,43-18.3,80.7-9.6
		c1.7,0.4,2.7,2.1,2.3,3.7l-0.1,0.5c-0.4,1.6-2,2.5-3.6,2.2c-35.4-8.1-67.3,4.9-76.3,9.1c-1.5,0.7-3.2,0.1-4-1.3l-0.3-0.5
		C213.8,169.9,214.5,168,216.1,167.2z M216,186.3c9.8-4.7,43-18.3,80.8-9.6c1.7,0.4,2.7,2,2.3,3.7l-0.1,0.5c-0.4,1.6-2,2.5-3.6,2.2
		c-35.4-8.1-67.3,4.9-76.3,9.1c-1.5,0.7-3.2,0.1-4-1.3l-0.3-0.5C213.8,189,214.4,187.1,216,186.3z M216,203.9
		c9.8-4.7,43-18.3,80.7-9.6c1.7,0.4,2.7,2.1,2.3,3.7l-0.1,0.5c-0.4,1.6-2,2.5-3.6,2.2c-35.4-8.1-67.3,4.9-76.3,9.1
		c-1.5,0.7-3.2,0.1-4-1.3l-0.3-0.5C213.8,206.6,214.4,204.7,216,203.9z M216.1,222.1c9.8-4.7,43-18.3,80.7-9.6
		c1.7,0.4,2.7,2.1,2.3,3.7l-0.1,0.5c-0.4,1.6-2,2.5-3.6,2.2c-35.4-8.1-67.3,4.9-76.3,9.1c-1.5,0.7-3.2,0.1-4-1.3l-0.3-0.5
		C213.8,224.8,214.5,222.9,216.1,222.1z M219,246.2c-1.5,0.7-3.2,0.1-4-1.3l-0.2-0.5c-0.9-1.5-0.2-3.4,1.3-4.2
		c9.8-4.7,43-18.3,80.7-9.6c1.7,0.4,2.7,2.1,2.2,3.7l-0.1,0.5c-0.4,1.6-2,2.5-3.6,2.2C259.9,228.9,228,242,219,246.2z"/>
	<path class="st0" d="M190,275.6v-156c-19.6-16.1-46-25.6-73.9-25.6c-21.2,0-38.4,4.9-44.8,7v164.2c10.8-4.3,23.6-6.4,37.9-6.4
		C143.3,258.7,177.2,270.5,190,275.6z M90.7,121.7c37.8-8.7,70.9,4.9,80.7,9.6c1.6,0.8,2.2,2.7,1.3,4.2l-0.3,0.5
		c-0.8,1.4-2.5,2-4,1.3c-9-4.2-41-17.2-76.3-9.1c-1.6,0.4-3.2-0.6-3.6-2.2l-0.1-0.5C88,123.8,89,122.1,90.7,121.7z M90.7,140.2
		c37.8-8.7,70.9,4.9,80.7,9.6c1.6,0.8,2.2,2.7,1.3,4.2l-0.3,0.5c-0.8,1.4-2.5,2-4,1.3c-9-4.2-41-17.2-76.3-9.1
		c-1.6,0.4-3.2-0.6-3.6-2.2l-0.1-0.5C88,142.3,89,140.6,90.7,140.2z M90.7,157.6c37.8-8.7,70.9,4.9,80.7,9.6
		c1.6,0.8,2.2,2.7,1.3,4.2l-0.3,0.5c-0.8,1.4-2.5,2-4,1.3c-9-4.2-41-17.2-76.3-9.1c-1.6,0.4-3.2-0.6-3.6-2.2l-0.1-0.5
		C88,159.7,89,158,90.7,157.6z M90.7,176.7c37.8-8.7,71,4.9,80.8,9.6c1.6,0.8,2.2,2.7,1.3,4.2l-0.3,0.5c-0.8,1.4-2.5,2-4,1.3
		c-9.1-4.2-41-17.2-76.3-9.1c-1.6,0.4-3.2-0.6-3.6-2.2l-0.1-0.5C88,178.7,89,177.1,90.7,176.7z M172.8,208.1l-0.3,0.5
		c-0.8,1.4-2.5,2-4,1.3c-9.1-4.2-41-17.2-76.3-9.1c-1.6,0.4-3.2-0.6-3.6-2.2l-0.1-0.5c-0.4-1.6,0.6-3.3,2.3-3.7
		c37.8-8.7,70.9,4.9,80.7,9.6C173.1,204.7,173.7,206.6,172.8,208.1z M90.7,212.5c37.8-8.7,70.9,4.9,80.7,9.6
		c1.6,0.8,2.2,2.7,1.3,4.2l-0.3,0.5c-0.8,1.4-2.5,2-4,1.3c-9-4.2-41-17.2-76.3-9.1c-1.6,0.4-3.2-0.6-3.6-2.2l-0.1-0.5
		C88,214.5,89,212.9,90.7,212.5z M88.6,234.9l-0.1-0.5c-0.4-1.7,0.6-3.3,2.2-3.7c37.8-8.7,70.9,4.9,80.7,9.6
		c1.6,0.8,2.2,2.7,1.3,4.2l-0.2,0.5c-0.8,1.4-2.5,2-4,1.3c-9-4.2-41-17.2-76.3-9.1C90.6,237.4,89,236.4,88.6,234.9z"/>
	<path class="st1" d="M88.6,125.9c0.4,1.6,2,2.5,3.6,2.2c35.4-8.1,67.3,4.9,76.3,9.1c1.5,0.7,3.2,0.1,4-1.3l0.3-0.5
		c0.9-1.5,0.2-3.4-1.3-4.2c-9.8-4.7-43-18.3-80.7-9.6c-1.7,0.4-2.7,2.1-2.3,3.7L88.6,125.9z"/>
	<path class="st1" d="M88.6,144.5c0.4,1.6,2,2.5,3.6,2.2c35.4-8.1,67.3,4.9,76.3,9.1c1.5,0.7,3.2,0.1,4-1.3l0.3-0.5
		c0.9-1.5,0.2-3.4-1.3-4.2c-9.8-4.7-43-18.3-80.7-9.6c-1.7,0.4-2.7,2-2.3,3.7L88.6,144.5z"/>
	<path class="st1" d="M88.6,161.8c0.4,1.6,2,2.5,3.6,2.2c35.4-8.1,67.3,4.9,76.3,9.1c1.5,0.7,3.2,0.1,4-1.3l0.3-0.5
		c0.9-1.5,0.2-3.4-1.3-4.2c-9.8-4.7-43-18.3-80.7-9.6c-1.7,0.4-2.7,2.1-2.3,3.7L88.6,161.8z"/>
	<path class="st1" d="M88.6,180.9c0.4,1.6,2,2.5,3.6,2.2c35.4-8.1,67.3,4.9,76.3,9.1c1.5,0.7,3.2,0.1,4-1.3l0.3-0.5
		c0.9-1.5,0.2-3.4-1.3-4.2c-9.8-4.7-43-18.3-80.8-9.6c-1.7,0.4-2.7,2-2.3,3.7L88.6,180.9z"/>
	<path class="st1" d="M171.5,203.9c-9.8-4.7-43-18.3-80.7-9.6c-1.7,0.4-2.7,2.1-2.3,3.7l0.1,0.5c0.4,1.6,2,2.5,3.6,2.2
		c35.4-8.1,67.3,4.9,76.3,9.1c1.5,0.7,3.2,0.1,4-1.3l0.3-0.5C173.7,206.6,173.1,204.7,171.5,203.9z"/>
	<path class="st1" d="M88.6,216.7c0.4,1.6,2,2.5,3.6,2.2c35.4-8.1,67.3,4.9,76.3,9.1c1.5,0.7,3.2,0.1,4-1.3l0.3-0.5
		c0.9-1.5,0.2-3.4-1.3-4.2c-9.8-4.7-43-18.3-80.7-9.6c-1.7,0.4-2.7,2.1-2.3,3.7L88.6,216.7z"/>
	<path class="st1" d="M168.5,246.2c1.5,0.7,3.2,0.1,4-1.3l0.2-0.5c0.9-1.5,0.2-3.4-1.3-4.2c-9.8-4.7-43-18.3-80.7-9.6
		c-1.7,0.4-2.7,2.1-2.2,3.7l0.1,0.5c0.4,1.6,2,2.5,3.6,2.2C127.6,228.9,159.5,242,168.5,246.2z"/>
	<path class="st1" d="M215,136c0.8,1.4,2.5,2,4,1.3c9-4.2,41-17.2,76.3-9.1c1.6,0.4,3.2-0.6,3.6-2.2l0.1-0.5
		c0.4-1.6-0.6-3.3-2.3-3.7c-37.8-8.7-70.9,4.9-80.7,9.6c-1.6,0.8-2.2,2.7-1.3,4.2L215,136z"/>
	<path class="st1" d="M215,154.5c0.8,1.4,2.5,2,4,1.3c9-4.2,41-17.2,76.3-9.1c1.6,0.4,3.2-0.6,3.6-2.2l0.1-0.5
		c0.4-1.7-0.6-3.3-2.3-3.7c-37.8-8.7-70.9,4.9-80.7,9.6c-1.6,0.8-2.2,2.7-1.3,4.2L215,154.5z"/>
	<path class="st1" d="M215,171.9c0.8,1.4,2.5,2,4,1.3c9-4.2,41-17.2,76.3-9.1c1.6,0.4,3.2-0.6,3.6-2.2l0.1-0.5
		c0.4-1.6-0.6-3.3-2.3-3.7c-37.8-8.7-70.9,4.9-80.7,9.6c-1.6,0.8-2.2,2.7-1.3,4.2L215,171.9z"/>
	<path class="st1" d="M215,190.9c0.8,1.4,2.5,2,4,1.3c9.1-4.2,41-17.2,76.3-9.1c1.6,0.4,3.2-0.6,3.6-2.2l0.1-0.5
		c0.4-1.7-0.6-3.3-2.3-3.7c-37.8-8.7-71,4.9-80.8,9.6c-1.6,0.8-2.2,2.7-1.3,4.2L215,190.9z"/>
	<path class="st1" d="M215,208.6c0.8,1.4,2.5,2,4,1.3c9.1-4.2,41-17.2,76.3-9.1c1.6,0.4,3.2-0.6,3.6-2.2l0.1-0.5
		c0.4-1.6-0.6-3.3-2.3-3.7c-37.8-8.7-70.9,4.9-80.7,9.6c-1.6,0.8-2.2,2.7-1.3,4.2L215,208.6z"/>
	<path class="st1" d="M215,226.7c0.8,1.4,2.5,2,4,1.3c9-4.2,41-17.2,76.3-9.1c1.6,0.4,3.2-0.6,3.6-2.2l0.1-0.5
		c0.4-1.6-0.6-3.3-2.3-3.7c-37.8-8.7-70.9,4.9-80.7,9.6c-1.6,0.8-2.2,2.7-1.3,4.2L215,226.7z"/>
	<path class="st1" d="M298.9,234.9l0.1-0.5c0.4-1.7-0.6-3.3-2.2-3.7c-37.8-8.7-70.9,4.9-80.7,9.6c-1.6,0.8-2.2,2.7-1.3,4.2l0.2,0.5
		c0.8,1.4,2.5,2,4,1.3c9-4.2,41-17.2,76.3-9.1C296.9,237.4,298.5,236.4,298.9,234.9z"/>
	<path class="st1" d="M55.5,296.4c11.6-4.6,36.8-13.6,56.1-13.6c19.4,0,37.7,2.8,52.9,7.6c-0.5,1.1-0.8,2.2-0.8,3.3
		c0,8,13.4,14.5,30,14.5c16.6,0,30-6.5,30-14.5c0-1.1-0.3-2.2-0.8-3.3c15.2-4.7,33.5-7.6,52.9-7.6c19.4,0,44.5,9,56.1,13.6
		c2.9,1.1,6-0.8,6.3-3.7V122.8c-0.1-1.8-0.9-3.4-2.2-4.7c-2.3-2.3-6.4-5.5-11.7-6.4V99.5c0-2.6-1.7-4.9-4.2-5.7
		c-8.2-2.7-27.5-8-48.8-8c-30.3,0-56.4,9.1-77.6,27c-21.2-17.9-47.3-27-77.6-27c-21.3,0-40.6,5.3-48.8,8c-2.5,0.8-4.2,3.1-4.2,5.7
		v12.1c-5.3,1-9.3,4.2-11.7,6.4c-1.4,1.4-2.2,3.3-2.2,5.3v168.7C49.2,295.4,52.5,297.6,55.5,296.4z M197.5,119.6
		c19.6-16.1,46-25.6,73.9-25.6c21.2,0,38.4,4.9,44.8,7v164.2c-10.8-4.3-23.6-6.4-37.9-6.4c-34,0-67.9,11.8-80.7,16.9V119.6z
		 M71.4,100.9c6.3-2.1,23.6-7,44.8-7c27.9,0,54.3,9.5,73.9,25.6v156c-12.8-5.1-46.7-16.9-80.7-16.9c-14.4,0-27.1,2.2-37.9,6.4V100.9
		z"/>
</g>
</svg>
