<?xml version="1.0" encoding="utf-8"?>
<!-- Generator: Adobe Illustrator 19.0.0, SVG Export Plug-In . SVG Version: 6.00 Build 0)  -->
<svg version="1.1" id="Layer_1" xmlns="http://www.w3.org/2000/svg" xmlns:xlink="http://www.w3.org/1999/xlink" x="0px" y="0px"
	 viewBox="0 0 216 82.8" style="enable-background:new 0 0 216 82.8;" xml:space="preserve">
<style type="text/css">
	.st0{fill:#1E384B;}
	.st1{fill:#72808A;}
	.st2{fill:#C6CDD1;}
</style>
<g>
	<g>
		<path class="st0" d="M59,32.1h-7.2c-0.2-0.8-0.2-1.7-0.2-2.5c0-0.8,0.1-1.7,0.2-2.5h20.4c0.2,0.8,0.2,1.6,0.2,2.5
			c0,0.9-0.1,1.7-0.2,2.5H65v24c-0.5,0.1-1,0.1-1.5,0.1c-0.5,0-1,0.1-1.4,0.1c-0.5,0-0.9,0-1.5,0c-0.5,0-1.1-0.1-1.6-0.2V32.1z"/>
		<path class="st0" d="M76.8,47.4c0.1,1.6,0.7,2.8,1.7,3.5c1,0.7,2.4,1.1,4,1.1c0.9,0,1.9-0.1,2.8-0.3c1-0.2,1.9-0.4,2.7-0.7
			c0.3,0.5,0.6,1.2,0.8,1.9c0.2,0.8,0.3,1.6,0.4,2.4c-2.1,0.8-4.5,1.2-7.1,1.2c-1.9,0-3.6-0.3-5-0.8c-1.4-0.5-2.5-1.3-3.4-2.2
			c-0.9-1-1.5-2.1-1.9-3.4c-0.4-1.3-0.6-2.8-0.6-4.3c0-1.5,0.2-3,0.6-4.3c0.4-1.3,1.1-2.5,1.9-3.5c0.8-1,1.9-1.8,3.1-2.4
			c1.3-0.6,2.7-0.9,4.4-0.9c1.5,0,2.7,0.3,3.9,0.8c1.1,0.5,2.1,1.2,2.9,2.1c0.8,0.9,1.4,1.9,1.8,3.2c0.4,1.2,0.6,2.5,0.6,3.9
			c0,0.5,0,1-0.1,1.5c0,0.5-0.1,0.9-0.1,1.2H76.8z M85,43.4c-0.1-1.3-0.4-2.3-1.1-3.1c-0.7-0.8-1.6-1.2-2.8-1.2
			c-1.3,0-2.4,0.4-3.1,1.1c-0.7,0.8-1.1,1.8-1.3,3.2H85z"/>
		<path class="st0" d="M94.9,35.2c0.4-0.1,0.8-0.1,1.1-0.2c0.4,0,0.8-0.1,1.3-0.1c0.5,0,0.9,0,1.2,0.1c0.3,0,0.7,0.1,1.1,0.2
			c0.1,0.1,0.2,0.3,0.2,0.6c0.1,0.3,0.1,0.5,0.2,0.8c0.1,0.3,0.1,0.6,0.1,0.8c0,0.3,0.1,0.5,0.1,0.7c0.3-0.4,0.6-0.8,1-1.2
			c0.4-0.4,0.8-0.8,1.3-1.1c0.5-0.3,1.1-0.6,1.7-0.8c0.6-0.2,1.3-0.3,2.1-0.3c2.4,0,4.2,0.6,5.3,1.9c1.2,1.3,1.8,3.3,1.8,6.1v13.3
			c-1,0.2-1.9,0.2-2.9,0.2c-0.9,0-1.9-0.1-2.9-0.2V44.3c0-1.5-0.2-2.6-0.7-3.4c-0.4-0.8-1.2-1.2-2.3-1.2c-0.5,0-0.9,0.1-1.4,0.2
			c-0.5,0.1-0.9,0.4-1.3,0.8c-0.4,0.4-0.7,0.9-0.9,1.6c-0.2,0.7-0.4,1.6-0.4,2.7v10.9c-1,0.2-1.9,0.2-2.9,0.2
			c-0.9,0-1.9-0.1-2.9-0.2V35.2z"/>
		<path class="st0" d="M119.2,39.6h-2.6l-0.2-0.8l7.5-9.6h0.9v6.1h4.9c0.1,0.4,0.1,0.8,0.2,1.1c0,0.3,0,0.7,0,1c0,0.4,0,0.7,0,1.1
			c0,0.4-0.1,0.7-0.2,1.2h-4.9v8.2c0,0.8,0.1,1.5,0.2,2c0.1,0.5,0.3,0.9,0.6,1.2c0.3,0.3,0.6,0.5,0.9,0.6c0.4,0.1,0.8,0.2,1.3,0.2
			c0.4,0,0.8,0,1.2-0.1c0.4-0.1,0.7-0.1,1-0.2c0.2,0.5,0.3,1,0.4,1.6c0.1,0.6,0.1,1,0.1,1.5c0,0.3,0,0.5,0,0.7c0,0.2,0,0.4-0.1,0.6
			c-1.2,0.3-2.5,0.4-3.8,0.4c-2.4,0-4.3-0.6-5.6-1.7c-1.3-1.1-1.9-3-1.9-5.6V39.6z"/>
		<path class="st0" d="M153.4,52.8c0.2,0.4,0.4,0.8,0.6,1.2c0.2,0.4,0.3,0.8,0.4,1.2c-0.9,0.5-2,0.8-3.3,1.1c-1.3,0.3-2.6,0.4-4,0.4
			c-2,0-3.8-0.3-5.4-1c-1.6-0.6-3-1.6-4.2-2.8c-1.2-1.2-2.1-2.8-2.7-4.6c-0.6-1.8-1-3.9-1-6.3c0-2.4,0.3-4.6,0.9-6.5
			c0.6-1.9,1.5-3.5,2.7-4.8c1.1-1.3,2.5-2.3,4.2-3c1.6-0.7,3.5-1,5.5-1c1.7,0,3.1,0.1,4.2,0.4c1.1,0.2,2,0.4,2.5,0.6
			c-0.1,0.5-0.1,0.9-0.2,1.2c-0.1,0.3-0.2,0.7-0.4,1.2c-0.4-0.1-0.7-0.2-1.1-0.3s-0.8-0.2-1.2-0.3s-1-0.1-1.6-0.2
			c-0.6-0.1-1.3-0.1-2.1-0.1c-1.6,0-3,0.3-4.3,0.9c-1.3,0.6-2.3,1.4-3.2,2.5c-0.9,1.1-1.6,2.4-2.1,4c-0.5,1.6-0.7,3.4-0.7,5.4
			c0,2.1,0.3,3.9,0.8,5.4c0.5,1.5,1.3,2.8,2.2,3.8c1,1,2.1,1.8,3.4,2.2c1.3,0.5,2.7,0.7,4.1,0.7c1.3,0,2.4-0.1,3.5-0.4
			C151.8,53.5,152.7,53.2,153.4,52.8z"/>
		<path class="st0" d="M158.8,35.5c0.2,0,0.4,0,0.6-0.1c0.2,0,0.4,0,0.6,0c0.2,0,0.4,0,0.6,0c0.2,0,0.4,0,0.6,0.1
			c0.1,0.5,0.1,1.1,0.1,1.7c0,0.7,0,1.3,0,1.8c0.5-1,1.3-1.8,2.3-2.5c1-0.7,2.2-1,3.8-1c0.1,0,0.3,0,0.4,0c0.1,0,0.3,0,0.5,0
			c0.1,0.5,0.1,0.9,0.1,1.3c0,0.4,0,0.8-0.1,1.3c-0.2,0-0.4,0-0.5,0c-0.1,0-0.2,0-0.4,0c-1.8,0-3.3,0.6-4.4,1.7
			c-1.1,1.2-1.7,3.1-1.7,5.8v10.6c-0.2,0-0.4,0-0.7,0.1c-0.3,0-0.5,0-0.7,0c-0.1,0-0.4,0-0.6,0c-0.3,0-0.5,0-0.7-0.1V35.5z"/>
		<path class="st0" d="M183.9,42.5c0-1.8-0.4-3.1-1.3-3.9c-0.8-0.8-2.1-1.2-3.7-1.2c-1.1,0-2.1,0.1-2.9,0.2
			c-0.9,0.1-1.7,0.3-2.4,0.5c-0.1-0.2-0.2-0.6-0.3-1.1c-0.1-0.5-0.1-0.9-0.1-1.3c0.7-0.2,1.6-0.4,2.6-0.5c1-0.1,2.1-0.2,3.1-0.2
			c2.6,0,4.5,0.6,5.8,1.7c1.3,1.1,1.9,2.9,1.9,5.4v13.6c-0.9,0.2-2.1,0.4-3.4,0.6c-1.3,0.2-2.6,0.3-3.8,0.3c-2.5,0-4.5-0.5-5.9-1.5
			c-1.4-1-2.2-2.6-2.2-4.8c0-1.1,0.2-2,0.6-2.9c0.4-0.8,1-1.6,1.7-2.1c0.7-0.6,1.6-1,2.7-1.3c1-0.3,2.2-0.4,3.4-0.4
			c1,0,1.8,0,2.5,0.1c0.7,0.1,1.3,0.1,1.7,0.2V42.5z M183.9,46.1c-0.5-0.1-1-0.1-1.7-0.2c-0.7-0.1-1.3-0.1-2-0.1
			c-2,0-3.6,0.4-4.7,1.1c-1.1,0.8-1.7,1.8-1.7,3.2c0,0.9,0.2,1.6,0.5,2.1c0.3,0.5,0.8,0.9,1.3,1.2c0.5,0.3,1.1,0.5,1.8,0.6
			c0.6,0.1,1.3,0.1,1.9,0.1c0.8,0,1.6,0,2.3-0.1c0.7-0.1,1.4-0.2,2.1-0.3V46.1z"/>
		<path class="st0" d="M192.9,37.8h-3.5c0-0.1,0-0.3-0.1-0.5c0-0.2,0-0.4,0-0.6c0-0.2,0-0.4,0-0.6c0-0.2,0-0.4,0.1-0.5h3.5v-1.8
			c0-2.5,0.6-4.4,1.7-5.7c1.1-1.3,2.9-1.9,5.3-1.9c0.6,0,1.1,0,1.6,0.1c0.5,0.1,0.9,0.1,1.2,0.2c-0.1,0.5-0.1,0.9-0.2,1.3
			c-0.1,0.3-0.2,0.7-0.3,1c-0.2-0.1-0.6-0.1-1-0.2c-0.4-0.1-0.8-0.1-1.3-0.1c-0.7,0-1.3,0.1-1.9,0.2c-0.5,0.1-1,0.4-1.4,0.8
			c-0.4,0.4-0.6,0.9-0.8,1.6s-0.3,1.6-0.3,2.7v1.7h5.7c0,0.1,0,0.3,0.1,0.5c0,0.2,0,0.4,0,0.6c0,0.2,0,0.4,0,0.6
			c0,0.2,0,0.4-0.1,0.5h-5.7v18.3c-0.2,0-0.4,0-0.7,0.1c-0.3,0-0.5,0-0.7,0c-0.1,0-0.4,0-0.6,0c-0.3,0-0.5,0-0.7-0.1V37.8z"/>
		<path class="st0" d="M207.4,37.8h-3.5c0-0.1,0-0.3-0.1-0.5c0-0.2,0-0.4,0-0.6c0-0.2,0-0.4,0-0.6c0-0.2,0-0.3,0.1-0.5h3.5v-3.9
			l2.5-2.5h0.2v6.3h5.6c0,0.1,0,0.3,0.1,0.5c0,0.2,0,0.4,0,0.6c0,0.2,0,0.4,0,0.6c0,0.2,0,0.4-0.1,0.5h-5.6v13.4
			c0,0.7,0.1,1.2,0.3,1.6c0.2,0.4,0.4,0.7,0.7,0.9c0.3,0.2,0.6,0.4,1,0.4s0.7,0.1,1.1,0.1c0.9,0,1.8-0.1,2.5-0.4
			c0.2,0.7,0.3,1.5,0.4,2.3c-1,0.3-2.1,0.4-3.4,0.4c-1.5,0-2.8-0.4-3.7-1.2c-1-0.8-1.4-2.2-1.4-4V37.8z"/>
	</g>
	<g>
		<path class="st1" d="M22.3,63.7c-9.7,0-18.3-6.2-21.2-15.5l-0.1-0.4l5.7-4.1l0,0l15.7-11.3L38,43.8l0,0l5.6,4.1l-0.1,0.4
			C40.6,57.5,32,63.7,22.3,63.7z M9,50c3,4.5,7.9,7.2,13.3,7.2c5.4,0,10.3-2.7,13.3-7.2l-13.3-9.6L9,50z"/>
		<path class="st2" d="M37.9,38.3l0-0.2c-1.5-7.3-8.1-12.6-15.5-12.6c-7.5,0-14,5.3-15.5,12.6l0,0.2l-6.7,4.8l0-1c0-0.1,0-0.2,0-0.3
			c0-0.2,0-0.3,0-0.5c0-12.3,10-22.3,22.3-22.3c12.3,0,22.3,10,22.3,22.3c0,0.2,0,0.3,0,0.5c0,0.1,0,0.2,0,0.3l0,1L37.9,38.3z"/>
	</g>
</g>
</svg>
